<svg width="350" height="230" viewBox="0 0 350 230" fill="none" xmlns="http://www.w3.org/2000/svg">
<rect width="350" height="230" rx="28" fill="#F8F8F8"/>
<path d="M67.8531 228V202.927L65.5 202.927C64.3954 202.927 63.5 202.032 63.5 200.927V164.811C63.5 163.706 64.3954 162.81 65.5 162.81L67.8531 162.81V152.781L65.5 152.781C64.3954 152.781 63.5 151.886 63.5 150.781V114.665C63.5 113.56 64.3954 112.665 65.5 112.665L67.8531 112.665V82C67.8531 67.6406 79.4937 56 93.8531 56H254.147C268.506 56 280.147 67.6406 280.147 82V112.665H283.5C284.605 112.665 285.5 113.56 285.5 114.665V176C285.5 177.105 284.605 178 283.5 178H280.147V228" stroke="black" stroke-width="2"/>
<rect x="145" y="72" width="60" height="16" rx="8" fill="white"/>
<rect x="143" y="68" width="58" height="14" rx="7" stroke="black" stroke-width="2"/>
<path d="M119 145H133" stroke="black" stroke-width="2"/>
<path d="M126.005 138L126.005 152" stroke="black" stroke-width="2"/>
<path d="M110 166L236 166" stroke="black" stroke-width="2"/>
<circle cx="125.5" cy="204.5" r="16.5" fill="#D5FF73"/>
<circle cx="219.5" cy="204.5" r="16.5" fill="white"/>
<circle cx="172.5" cy="204.5" r="16.5" fill="white"/>
<path d="M125.984 210V200.711H125.852L123.047 202.695V200.797L125.992 198.727H128V210H125.984Z" fill="black"/>
<path d="M168.648 210V208.641L172.352 204.859C173.883 203.312 174.312 202.742 174.312 201.875V201.852C174.312 200.812 173.602 200.062 172.43 200.062C171.234 200.062 170.43 200.852 170.43 202.016L170.422 202.047L168.547 202.039L168.539 202.016C168.539 199.914 170.18 198.445 172.531 198.445C174.727 198.445 176.305 199.781 176.305 201.68V201.703C176.305 202.984 175.688 204 173.633 205.977L171.375 208.164V208.328H176.477V210H168.648Z" fill="black"/>
<path d="M219.523 210.227C217.055 210.227 215.438 208.883 215.289 206.953L215.281 206.859H217.203L217.211 206.945C217.32 207.898 218.203 208.578 219.523 208.578C220.828 208.578 221.695 207.852 221.695 206.805V206.789C221.695 205.602 220.82 204.945 219.375 204.945H218.047V203.445H219.336C220.578 203.445 221.406 202.742 221.406 201.758V201.742C221.406 200.711 220.711 200.102 219.508 200.102C218.32 200.102 217.5 200.734 217.398 201.742L217.391 201.82H215.516L215.523 201.734C215.695 199.781 217.234 198.5 219.508 198.5C221.828 198.5 223.336 199.711 223.336 201.477V201.492C223.336 202.891 222.328 203.82 220.977 204.102V204.141C222.633 204.297 223.734 205.281 223.734 206.844V206.859C223.734 208.844 222.023 210.227 219.523 210.227Z" fill="black"/>
</svg>
